<svg width="33" height="30" viewBox="0 0 33 30" fill="none" xmlns="http://www.w3.org/2000/svg">
<g id="&#240;&#159;&#166;&#134; icon &#34;shopping cart&#34;">
<path id="Vector" fill-rule="evenodd" clip-rule="evenodd" d="M7.13837 0H0V2.9795H4.79461L8.91943 21.8659H8.9385V22.3462H28.3052V21.9766L31.5726 7.58424L32.0755 5.959H8.42483L7.57515 2.06855L7.13837 0ZM28.2857 8.9385H9.07555L11.3531 19.3667H25.9184L28.2857 8.9385Z" fill="black"/>
<path id="Vector_2" d="M13.4077 29.795C15.0533 29.795 16.3872 28.4611 16.3872 26.8155C16.3872 25.1699 15.0533 23.836 13.4077 23.836C11.7622 23.836 10.4282 25.1699 10.4282 26.8155C10.4282 28.4611 11.7622 29.795 13.4077 29.795Z" fill="black"/>
<path id="Vector_3" d="M26.8154 26.8155C26.8154 28.4611 25.4815 29.795 23.8359 29.795C22.1904 29.795 20.8564 28.4611 20.8564 26.8155C20.8564 25.1699 22.1904 23.836 23.8359 23.836C25.4815 23.836 26.8154 25.1699 26.8154 26.8155Z" fill="black"/>
</g>
</svg>
