<svg width="197" height="27" viewBox="0 0 197 27" fill="none" xmlns="http://www.w3.org/2000/svg">
<rect width="197" height="27" fill="#585858"/>
<g id="&#209;&#141;&#208;&#186;&#209;&#128;&#208;&#176;&#208;&#189;" clip-path="url(#clip0_0_1)">
<rect width="1440" height="2979" transform="translate(-1225 -54)" fill="white"/>
<g id="&#208;&#184;&#208;&#186;&#208;&#190;&#208;&#189;&#208;&#186;&#208;&#184;">
<path id="Ellipse 10" d="M20 11C20 16.5228 15.5228 21 10 21C4.47715 21 0 16.5228 0 11C0 5.47715 4.47715 1 10 1C15.5228 1 20 5.47715 20 11ZM1.15236 11C1.15236 15.8864 5.11359 19.8476 10 19.8476C14.8864 19.8476 18.8476 15.8864 18.8476 11C18.8476 6.11359 14.8864 2.15236 10 2.15236C5.11359 2.15236 1.15236 6.11359 1.15236 11Z" fill="black"/>
<path id="Arrow 1" d="M16.4755 19L22.0247 25" stroke="black" stroke-linecap="round"/>
<circle id="Ellipse 11" cx="5" cy="11" r="1" fill="black"/>
<circle id="Ellipse 12" cx="10" cy="11" r="1" fill="black"/>
<circle id="Ellipse 13" cx="15" cy="11" r="1" fill="black"/>
<path id="Ellipse 14" d="M87 9C87 13.4183 83.4183 17 79 17C74.5817 17 71 13.4183 71 9C71 4.58172 74.5817 1 79 1C83.4183 1 87 4.58172 87 9ZM72.2707 9C72.2707 12.7165 75.2835 15.7293 79 15.7293C82.7165 15.7293 85.7293 12.7165 85.7293 9C85.7293 5.28354 82.7165 2.27075 79 2.27075C75.2835 2.27075 72.2707 5.28354 72.2707 9Z" fill="black"/>
<path id="Ellipse 15" d="M77 8.99999C77 9.55228 76.5523 9.99999 76 9.99999C75.4477 9.99999 75 9.55228 75 8.99999C75 8.44771 75.4477 7.99999 76 7.99999C76.5523 7.99999 77 8.44771 77 8.99999Z" fill="black"/>
<path id="Ellipse 16" d="M83 8.99999C83 9.55228 82.5523 9.99999 82 9.99999C81.4477 9.99999 81 9.55228 81 8.99999C81 8.44771 81.4477 7.99999 82 7.99999C82.5523 7.99999 83 8.44771 83 8.99999Z" fill="black"/>
<path id="Vector 10" d="M76 16L71.3537 19.9357C71.1293 20.1257 71 20.4048 71 20.6988V24" stroke="black" stroke-linecap="round"/>
<path id="Vector 11" d="M86.5 24C86.5 24.2761 86.7239 24.5 87 24.5C87.2761 24.5 87.5 24.2761 87.5 24H86.5ZM81.6768 16.3815L86.3232 20.3173L86.9695 19.5542L82.3232 15.6185L81.6768 16.3815ZM86.5 20.6988V24H87.5V20.6988H86.5ZM86.3232 20.3173C86.4353 20.4123 86.5 20.5518 86.5 20.6988H87.5C87.5 20.2578 87.306 19.8392 86.9695 19.5542L86.3232 20.3173Z" fill="black"/>
<path id="Vector 12" d="M71 24H87" stroke="black" stroke-linecap="round"/>
<path id="Ellipse 10_2" d="M137 23C137 24.1046 136.105 25 135 25C133.895 25 133 24.1046 133 23C133 21.8954 133.895 21 135 21C136.105 21 137 21.8954 137 23ZM133.72 23C133.72 23.7069 134.293 24.28 135 24.28C135.707 24.28 136.28 23.7069 136.28 23C136.28 22.2931 135.707 21.72 135 21.72C134.293 21.72 133.72 22.2931 133.72 23Z" fill="black"/>
<path id="Vector 18" d="M125 1H127.756C128.214 1 128.621 1.29108 128.77 1.72436L130.283 6.14286M130.283 6.14286L131.917 18.074C131.989 18.6046 132.443 19 132.978 19H148.759C149.276 19 149.72 18.6301 149.813 18.121L151.769 7.40675C151.889 6.74883 151.384 6.14286 150.715 6.14286H133.217H130.283Z" stroke="black" stroke-linecap="round"/>
<path id="Ellipse 11_2" d="M150 23C150 24.1046 149.105 25 148 25C146.895 25 146 24.1046 146 23C146 21.8954 146.895 21 148 21C149.105 21 150 21.8954 150 23ZM146.72 23C146.72 23.7069 147.293 24.28 148 24.28C148.707 24.28 149.28 23.7069 149.28 23C149.28 22.2931 148.707 21.72 148 21.72C147.293 21.72 146.72 22.2931 146.72 23Z" fill="black"/>
</g>
</g>
<defs>
<clipPath id="clip0_0_1">
<rect width="1440" height="2979" fill="white" transform="translate(-1225 -54)"/>
</clipPath>
</defs>
</svg>
