<svg width="22" height="22" viewBox="0 0 22 22" fill="none" xmlns="http://www.w3.org/2000/svg">
<g id="Property 1=Default">
<path id="Vector" fill-rule="evenodd" clip-rule="evenodd" d="M16.6681 15.025C19.5128 11.3716 19.2558 6.08605 15.8974 2.72755C12.2606 -0.909182 6.36428 -0.909182 2.72755 2.72755C-0.909184 6.36428 -0.909184 12.2606 2.72755 15.8973C6.08606 19.2558 11.3716 19.5127 15.025 16.6681C15.0407 16.686 15.0571 16.7034 15.0741 16.7204L20.0129 21.659C20.4674 22.1137 21.2045 22.1137 21.6591 21.659C22.1136 21.2045 22.1136 20.4675 21.6591 20.0128L16.7205 15.0742C16.7034 15.0572 16.6859 15.0408 16.6681 15.025ZM14.251 4.37377C16.9786 7.10131 16.9786 11.5235 14.251 14.2511C11.5235 16.9786 7.10131 16.9786 4.37377 14.2511C1.64622 11.5235 1.64622 7.10131 4.37377 4.37377C7.10131 1.64622 11.5235 1.64622 14.251 4.37377Z" fill="black"/>
</g>
</svg>
